<svg width="104" height="51" viewBox="0 0 104 51" fill="none" xmlns="http://www.w3.org/2000/svg">
<circle cx="79" cy="25" r="25" fill="#65A3FF"/>
<path d="M0.939904 14.0607C0.354118 13.4749 0.354118 12.5251 0.939904 11.9393L10.4858 2.3934C11.0716 1.80761 12.0214 1.80761 12.6072 2.3934C13.193 2.97918 13.193 3.92893 12.6072 4.51472L4.12188 13L12.6072 21.4853C13.193 22.0711 13.193 23.0208 12.6072 23.6066C12.0214 24.1924 11.0716 24.1924 10.4858 23.6066L0.939904 14.0607ZM45.0555 14.5L2.00056 14.5V11.5L45.0555 11.5V14.5Z" fill="#65A3FF"/>
<path d="M46.1156 37.9393C46.7014 38.5251 46.7014 39.4749 46.1156 40.0607L36.5697 49.6066C35.9839 50.1924 35.0342 50.1924 34.4484 49.6066C33.8626 49.0208 33.8626 48.0711 34.4484 47.4853L42.9337 39L34.4484 30.5147C33.8626 29.9289 33.8626 28.9792 34.4484 28.3934C35.0342 27.8076 35.9839 27.8076 36.5697 28.3934L46.1156 37.9393ZM2 37.5H45.055V40.5H2V37.5Z" fill="#65A3FF"/>
</svg>
