<svg width="68" height="88" viewBox="0 0 68 88" fill="none" xmlns="http://www.w3.org/2000/svg">
<path d="M1.30524 25.1213C0.13367 23.9497 0.13367 22.0503 1.30524 20.8787L20.3971 1.7868C21.5687 0.615224 23.4682 0.615224 24.6398 1.7868C25.8113 2.95837 25.8113 4.85786 24.6398 6.02944L7.6692 23L24.6398 39.9706C25.8113 41.1421 25.8113 43.0416 24.6398 44.2132C23.4682 45.3848 21.5687 45.3848 20.3971 44.2132L1.30524 25.1213ZM64.9923 26L3.42656 26V20L64.9923 20V26Z" fill="#65A3FF"/>
<path d="M67.1127 63.5453C68.2843 64.7169 68.2843 66.6164 67.1127 67.788L48.0208 86.8799C46.8493 88.0514 44.9498 88.0514 43.7782 86.8799C42.6066 85.7083 42.6066 83.8088 43.7782 82.6372L60.7488 65.6667L43.7782 48.6961C42.6066 47.5245 42.6066 45.625 43.7782 44.4535C44.9498 43.2819 46.8493 43.2819 48.0208 44.4535L67.1127 63.5453ZM3.42566 62.6667H64.9914V68.6667H3.42566V62.6667Z" fill="#65A3FF"/>
</svg>
